# xmcd
#
# Track frame offsets:
#	150
#	19129
#	37233
#	51411
#	70941
#	87067
#	107225
#	119790
#	132305
#	146498
#	164432
#	179740
#	190919
#	207594
#	224904
#	237306
#	251389
#	264286
#	281213
#
# Disc length: 4012 seconds
#
# Revision: 0
# Processed by: cddbd v1.5.2PL0 Copyright (c) Steve Scherf et al.
# Submitted via: audiograbber 1.83.01
#
DISCID=3b0faa13
DTITLE=Various Artist - Hott Country 177
DYEAR=2010
DGENRE=Country
TTITLE0=Toby Keith - Bullets In The Gun
TTITLE1=Kenny Chesney - Somewhere With You
TTITLE2=Emerson Drive - When I See You Again
TTITLE3=Dean Brody - Trail In Life
TTITLE4=Chris Cummings - Leaving's Not An Option
TTITLE5=Lady Antebellum - Hello World ( Radio Edit )
TTITLE6=Hey Romeo - Snao My Fingers
TTITLE7=Craig Morgan - Still A Little Chicken Left On That Bone
TTITLE8=Jason Blaine - Hillbilly Girl
TTITLE9=Little Big Town - Kiss Goodbye
TTITLE10=Diane Chase - Stand Still
TTITLE11=David Celia - I'm Not Texan
TTITLE12=Greg Hanna - What Kind Of love Are You
TTITLE13=Gary Allan - Kiss Me When I'm Down
TTITLE14=Jason Greeley - Louder Than Words
TTITLE15=Loretta Lynn Feat Sheryl Crow and Miranda Lambert - Coal Miners Daughter
TTITLE16=Randy Houser - A Man Like Me
TTITLE17=Billy Curlington - Let Me Down Easy
TTITLE18=Rolling Stones - Far Away Eyes ( 1976 )
EXTD=November 2010
EXTT0=
EXTT1=
EXTT2=
EXTT3=
EXTT4=
EXTT5=
EXTT6=
EXTT7=
EXTT8=
EXTT9=
EXTT10=
EXTT11=
EXTT12=
EXTT13=
EXTT14=
EXTT15=
EXTT16=
EXTT17=
EXTT18=
PLAYORDER=
